<svg version="1.1" id="Layer_1" xmlns="http://www.w3.org/2000/svg" xmlns:xlink="http://www.w3.org/1999/xlink" x="0px" y="0px"
	 width="100%" viewBox="0 0 512 512" enable-background="new 0 0 512 512" xml:space="preserve">
<path fill="#000000" opacity="1.000000" stroke="none" 
	d="
M271.000000,513.000000 
	C180.688583,513.000000 90.877167,513.000000 1.032874,513.000000 
	C1.032874,342.396881 1.032874,171.793777 1.032874,1.095328 
	C171.561432,1.095328 342.122955,1.095328 512.842224,1.095328 
	C512.842224,171.666550 512.842224,342.333252 512.842224,513.000000 
	C432.460419,513.000000 351.980194,513.000000 271.000000,513.000000 
M176.993744,443.021942 
	C176.997803,455.812347 176.955399,468.602997 177.027603,481.393005 
	C177.058731,486.908234 179.389359,489.007904 185.051147,488.994720 
	C190.635071,488.981720 192.943741,486.825470 192.976395,481.277710 
	C193.040894,470.314911 192.937210,459.350830 193.044708,448.388672 
	C193.068542,445.957825 193.679764,443.532715 194.949310,441.021576 
	C203.985886,440.353119 213.025482,439.722778 222.058411,439.008270 
	C240.586060,437.542694 258.576721,433.212738 276.242828,427.796448 
	C296.950378,421.447723 316.638428,412.552155 335.516479,401.865417 
	C354.854248,390.918396 372.884277,378.095337 389.206543,363.103851 
	C408.576263,345.313477 425.844788,325.624146 440.177795,303.412811 
	C453.564453,282.667938 464.847198,260.867432 472.569214,237.473846 
	C477.622406,222.165421 481.436218,206.382156 484.762665,190.591980 
	C487.087891,179.554489 488.690643,168.157028 488.814362,156.900528 
	C489.277740,114.749237 488.999969,72.589798 489.000061,30.433413 
	C489.000061,28.690714 489.000031,26.948015 489.000031,24.136496 
	C476.078064,25.131592 464.062134,25.974779 452.061707,26.999418 
	C431.758514,28.732983 412.150604,33.695332 392.824066,39.947529 
	C373.569061,46.176594 355.360596,54.684872 337.751160,64.614304 
	C318.956604,75.212013 301.362762,87.568642 285.600922,102.192131 
	C273.961212,112.991150 263.245056,124.865639 252.812622,136.865341 
	C240.097900,151.490204 229.789810,167.865860 220.552689,184.902008 
	C210.844086,202.807724 203.465912,221.688004 196.286255,240.697357 
	C186.828278,222.344635 173.892410,206.867569 158.134537,193.553207 
	C138.963058,177.354584 117.053314,166.502029 92.984512,160.156784 
	C81.839317,157.218582 70.324913,155.180161 58.850281,154.135529 
	C47.756859,153.125595 36.499477,153.916733 24.999872,153.916733 
	C24.999872,155.454849 24.999872,157.262863 24.999872,159.070892 
	C24.999876,191.218674 24.628881,223.372971 25.195156,255.510788 
	C25.401602,267.227203 26.925875,279.104706 29.440495,290.559296 
	C35.395653,317.686249 46.627777,342.628662 63.034863,365.171356 
	C74.450607,380.856171 87.792641,394.574249 103.488197,406.009827 
	C116.850883,415.745728 130.985672,424.133911 146.448120,430.028656 
	C156.119110,433.715546 166.046921,436.728760 175.983658,440.669647 
	C176.313736,441.145416 176.643814,441.621185 176.993744,443.021942 
z"/>
<path fill="#45A186" opacity="1.000000" stroke="none" 
	d="
M196.945572,240.933212 
	C203.465912,221.688004 210.844086,202.807724 220.552689,184.902008 
	C229.789810,167.865860 240.097900,151.490204 252.812622,136.865341 
	C263.245056,124.865639 273.961212,112.991150 285.600922,102.192131 
	C301.362762,87.568642 318.956604,75.212013 337.751160,64.614304 
	C355.360596,54.684872 373.569061,46.176594 392.824066,39.947529 
	C412.150604,33.695332 431.758514,28.732983 452.061707,26.999418 
	C464.062134,25.974779 476.078064,25.131592 489.000031,24.136496 
	C489.000031,26.948015 489.000061,28.690714 489.000061,30.433413 
	C488.999969,72.589798 489.277740,114.749237 488.814362,156.900528 
	C488.690643,168.157028 487.087891,179.554489 484.762665,190.591980 
	C481.436218,206.382156 477.622406,222.165421 472.569214,237.473846 
	C464.847198,260.867432 453.564453,282.667938 440.177795,303.412811 
	C425.844788,325.624146 408.576263,345.313477 389.206543,363.103851 
	C372.884277,378.095337 354.854248,390.918396 335.516479,401.865417 
	C316.638428,412.552155 296.950378,421.447723 276.242828,427.796448 
	C258.576721,433.212738 240.586060,437.542694 222.058411,439.008270 
	C213.025482,439.722778 203.985886,440.353119 194.509598,440.669617 
	C194.115219,439.987122 194.115067,439.642487 194.212326,439.328003 
	C207.203247,397.321533 224.389923,357.079254 245.293304,318.422913 
	C245.996338,317.122833 248.365860,316.017151 249.950424,316.027832 
	C255.595062,316.065979 261.232361,316.855103 266.879333,316.949738 
	C292.735657,317.383270 318.520660,316.296143 344.049438,311.919464 
	C355.534607,309.950470 366.931091,307.410736 378.294769,304.810913 
	C383.301422,303.665436 385.728729,299.422302 384.641968,295.092804 
	C383.539429,290.700531 379.608124,288.486786 374.468079,289.418732 
	C372.994446,289.685913 371.546906,290.097351 370.087463,290.442932 
	C334.025330,298.982910 297.520294,302.436951 260.504089,299.938538 
	C259.277466,299.855743 258.077728,299.374969 256.881836,299.083710 
	C256.969086,298.094788 256.885864,297.548401 257.079132,297.129547 
	C257.635620,295.923462 258.267242,294.747742 258.933380,293.597168 
	C276.838013,262.670441 297.450470,233.632904 319.549103,205.571793 
	C325.586609,197.905319 331.442932,192.220596 341.935608,195.889206 
	C342.833557,196.203156 343.929352,196.068741 344.919586,195.983780 
	C360.656982,194.633865 376.474518,193.861740 392.105835,191.727631 
	C409.668823,189.329758 426.499298,183.778610 442.818695,176.835281 
	C448.317444,174.495773 450.312897,169.718063 447.905792,165.253510 
	C445.688995,161.141922 441.552643,160.069443 435.684570,162.567856 
	C410.849884,173.141678 384.723480,177.883636 357.997620,179.875229 
	C353.153015,180.236267 348.258392,179.926651 343.386871,179.926651 
	C344.009552,177.190186 344.906036,175.847992 345.981476,174.669037 
	C371.509094,146.684067 398.794922,120.554596 428.276764,96.743553 
	C433.074615,92.868553 434.325989,87.903091 431.523956,84.205460 
	C428.459381,80.161438 423.240570,80.014313 418.353821,84.168564 
	C408.203339,92.797501 398.176056,101.571388 388.096161,110.283409 
	C384.783661,113.146378 381.465057,116.002304 377.420990,119.489395 
	C377.420990,115.051971 376.834137,111.654015 377.536499,108.547562 
	C379.291962,100.783417 381.453918,93.096451 383.801880,85.486206 
	C385.343719,80.488625 384.293549,76.457100 380.179962,74.391068 
	C376.130157,72.357063 372.052917,73.981239 369.435699,78.721176 
	C368.873901,79.738663 368.439087,80.830139 367.993134,81.907127 
	C361.804443,96.852303 359.546539,112.340118 361.761688,128.398422 
	C362.274353,132.114761 361.586182,135.087036 358.818573,137.907303 
	C327.481689,169.840485 298.741699,203.938858 273.418213,240.867416 
	C272.560181,242.118668 271.426514,243.180908 269.817017,245.022827 
	C268.765717,242.150345 267.965637,240.352036 267.443817,238.476303 
	C263.724640,225.107071 263.990448,211.791519 268.288330,198.600433 
	C269.473541,194.962646 271.131470,191.479324 272.327606,187.844543 
	C273.756714,183.501892 271.845673,180.253906 268.128418,178.229309 
	C264.288300,176.137787 260.983398,177.700287 258.429718,180.809189 
	C257.398621,182.064468 256.774841,183.694321 256.133972,185.224182 
	C246.358856,208.558899 246.314514,231.871262 256.428528,255.117935 
	C258.109192,258.980865 259.505524,262.287262 256.680145,266.711700 
	C229.129486,309.854767 206.887772,355.647034 189.263107,403.689026 
	C185.077820,415.097412 181.089127,426.577942 176.842346,437.670898 
	C176.436020,436.179871 176.134354,435.052399 175.967789,433.905273 
	C169.820343,391.566864 157.727585,350.998169 139.619232,312.241974 
	C124.738640,280.393951 106.197144,250.824203 84.039444,223.523026 
	C80.109795,218.681152 80.205421,213.789246 84.098045,210.752487 
	C87.734131,207.915863 92.482300,208.702927 95.923004,212.927841 
	C132.336090,257.640259 159.162766,307.505188 176.152451,362.622833 
	C179.022079,371.932373 181.548019,381.347870 184.232742,390.714417 
	C184.488098,390.680756 184.743454,390.647064 184.998810,390.613373 
	C184.998810,388.814941 184.998611,387.016479 184.998825,385.218048 
	C185.001205,364.558929 184.884155,343.898895 185.037033,323.240875 
	C185.219116,298.633057 189.061920,274.512726 195.176010,250.714844 
	C195.998352,247.514038 196.366898,244.196625 196.945572,240.933212 
z"/>
<path fill="#6CC48F" opacity="1.000000" stroke="none" 
	d="
M196.615906,240.815277 
	C196.366898,244.196625 195.998352,247.514038 195.176010,250.714844 
	C189.061920,274.512726 185.219116,298.633057 185.037033,323.240875 
	C184.884155,343.898895 185.001205,364.558929 184.998825,385.218048 
	C184.998611,387.016479 184.998810,388.814941 184.998810,390.613373 
	C184.743454,390.647064 184.488098,390.680756 184.232742,390.714417 
	C181.548019,381.347870 179.022079,371.932373 176.152451,362.622833 
	C159.162766,307.505188 132.336090,257.640259 95.923004,212.927841 
	C92.482300,208.702927 87.734131,207.915863 84.098045,210.752487 
	C80.205421,213.789246 80.109795,218.681152 84.039444,223.523026 
	C106.197144,250.824203 124.738640,280.393951 139.619232,312.241974 
	C157.727585,350.998169 169.820343,391.566864 175.967789,433.905273 
	C176.134354,435.052399 176.436020,436.179871 176.800278,437.964233 
	C176.868332,439.003723 176.810791,439.395477 176.525635,439.836914 
	C176.298019,439.886627 175.859512,440.044220 175.859512,440.044220 
	C166.046921,436.728760 156.119110,433.715546 146.448120,430.028656 
	C130.985672,424.133911 116.850883,415.745728 103.488197,406.009827 
	C87.792641,394.574249 74.450607,380.856171 63.034863,365.171356 
	C46.627777,342.628662 35.395653,317.686249 29.440495,290.559296 
	C26.925875,279.104706 25.401602,267.227203 25.195156,255.510788 
	C24.628881,223.372971 24.999876,191.218674 24.999872,159.070892 
	C24.999872,157.262863 24.999872,155.454849 24.999872,153.916733 
	C36.499477,153.916733 47.756859,153.125595 58.850281,154.135529 
	C70.324913,155.180161 81.839317,157.218582 92.984512,160.156784 
	C117.053314,166.502029 138.963058,177.354584 158.134537,193.553207 
	C173.892410,206.867569 186.828278,222.344635 196.615906,240.815277 
z"/>
<path fill="#347965" opacity="1.000000" stroke="none" 
	d="
M176.753250,439.787231 
	C176.810791,439.395477 176.868332,439.003723 176.967926,438.318604 
	C181.089127,426.577942 185.077820,415.097412 189.263107,403.689026 
	C206.887772,355.647034 229.129486,309.854767 256.680145,266.711700 
	C259.505524,262.287262 258.109192,258.980865 256.428528,255.117935 
	C246.314514,231.871262 246.358856,208.558899 256.133972,185.224182 
	C256.774841,183.694321 257.398621,182.064468 258.429718,180.809189 
	C260.983398,177.700287 264.288300,176.137787 268.128418,178.229309 
	C271.845673,180.253906 273.756714,183.501892 272.327606,187.844543 
	C271.131470,191.479324 269.473541,194.962646 268.288330,198.600433 
	C263.990448,211.791519 263.724640,225.107071 267.443817,238.476303 
	C267.965637,240.352036 268.765717,242.150345 269.817017,245.022827 
	C271.426514,243.180908 272.560181,242.118668 273.418213,240.867416 
	C298.741699,203.938858 327.481689,169.840485 358.818573,137.907303 
	C361.586182,135.087036 362.274353,132.114761 361.761688,128.398422 
	C359.546539,112.340118 361.804443,96.852303 367.993134,81.907127 
	C368.439087,80.830139 368.873901,79.738663 369.435699,78.721176 
	C372.052917,73.981239 376.130157,72.357063 380.179962,74.391068 
	C384.293549,76.457100 385.343719,80.488625 383.801880,85.486206 
	C381.453918,93.096451 379.291962,100.783417 377.536499,108.547562 
	C376.834137,111.654015 377.420990,115.051971 377.420990,119.489395 
	C381.465057,116.002304 384.783661,113.146378 388.096161,110.283409 
	C398.176056,101.571388 408.203339,92.797501 418.353821,84.168564 
	C423.240570,80.014313 428.459381,80.161438 431.523956,84.205460 
	C434.325989,87.903091 433.074615,92.868553 428.276764,96.743553 
	C398.794922,120.554596 371.509094,146.684067 345.981476,174.669037 
	C344.906036,175.847992 344.009552,177.190186 343.386871,179.926651 
	C348.258392,179.926651 353.153015,180.236267 357.997620,179.875229 
	C384.723480,177.883636 410.849884,173.141678 435.684570,162.567856 
	C441.552643,160.069443 445.688995,161.141922 447.905792,165.253510 
	C450.312897,169.718063 448.317444,174.495773 442.818695,176.835281 
	C426.499298,183.778610 409.668823,189.329758 392.105835,191.727631 
	C376.474518,193.861740 360.656982,194.633865 344.919586,195.983780 
	C343.929352,196.068741 342.833557,196.203156 341.935608,195.889206 
	C331.442932,192.220596 325.586609,197.905319 319.549103,205.571793 
	C297.450470,233.632904 276.838013,262.670441 258.933380,293.597168 
	C258.267242,294.747742 257.635620,295.923462 257.079132,297.129547 
	C256.885864,297.548401 256.969086,298.094788 256.881836,299.083710 
	C258.077728,299.374969 259.277466,299.855743 260.504089,299.938538 
	C297.520294,302.436951 334.025330,298.982910 370.087463,290.442932 
	C371.546906,290.097351 372.994446,289.685913 374.468079,289.418732 
	C379.608124,288.486786 383.539429,290.700531 384.641968,295.092804 
	C385.728729,299.422302 383.301422,303.665436 378.294769,304.810913 
	C366.931091,307.410736 355.534607,309.950470 344.049438,311.919464 
	C318.520660,316.296143 292.735657,317.383270 266.879333,316.949738 
	C261.232361,316.855103 255.595062,316.065979 249.950424,316.027832 
	C248.365860,316.017151 245.996338,317.122833 245.293304,318.422913 
	C224.389923,357.079254 207.203247,397.321533 194.212326,439.328003 
	C194.115067,439.642487 194.115219,439.987122 194.045197,440.711304 
	C193.679764,443.532715 193.068542,445.957825 193.044708,448.388672 
	C192.937210,459.350830 193.040894,470.314911 192.976395,481.277710 
	C192.943741,486.825470 190.635071,488.981720 185.051147,488.994720 
	C179.389359,489.007904 177.058731,486.908234 177.027603,481.393005 
	C176.955399,468.602997 176.997803,455.812347 176.967926,442.173401 
	C176.879150,440.812317 176.816208,440.299774 176.753250,439.787231 
z"/>
<path fill="#45A186" opacity="1.000000" stroke="none" 
	d="
M176.525635,439.836914 
	C176.816208,440.299774 176.879150,440.812317 176.958008,441.710907 
	C176.643814,441.621185 176.313736,441.145416 175.921585,440.356934 
	C175.859512,440.044220 176.298019,439.886627 176.525635,439.836914 
z"/>
</svg>